# xmcd CD database file
#
# Track frame offsets:
#	189
#	17365
#	34431
#	52240
#	67570
#	85031
#	102060
#	120081
#	135842
#	153203
#	171219
#	185776
#	203535
#	222668
#	238547
#	254811
#	272057
#	286883
#	302923
#	320733
#
# Disc length: 4479 seconds
#
# Revision: 0
# Processed by: cddbd v1.5.1PL0 Copyright (c) Steve Scherf et al.
# Submitted via: CDex 1.51
#
DISCID=16117d14
DTITLE=Jean-François Maljean - Piano Hits
DYEAR=2002
DGENRE=Jazz
TTITLE0=Whiter Shade Of Pale
TTITLE1=Arthur's Theme
TTITLE2=Let It Be
TTITLE3=It Might Be You
TTITLE4=Just The Way You Are
TTITLE5=Yesterday Once More
TTITLE6=Hey Jude
TTITLE7=Promise Me
TTITLE8=Don't Cry For Me Argentina (Evita)
TTITLE9=Your Song
TTITLE10=Imagine
TTITLE11=Eternal Flame
TTITLE12=Nights In White Satin
TTITLE13=Bright Eyes
TTITLE14=Yesterday
TTITLE15=Killing Me Softly With This Song
TTITLE16=The Winner Takes It All
TTITLE17=Michelle
TTITLE18=You
TTITLE19=Sad Lisa
EXTD=YEAR: 2002
EXTT0=
EXTT1=
EXTT2=
EXTT3=
EXTT4=
EXTT5=
EXTT6=
EXTT7=
EXTT8=
EXTT9=
EXTT10=
EXTT11=
EXTT12=
EXTT13=
EXTT14=
EXTT15=
EXTT16=
EXTT17=
EXTT18=
EXTT19=
PLAYORDER=
